<svg width="48" height="48" viewBox="0 0 48 48" fill="none" xmlns="http://www.w3.org/2000/svg">
  <rect width="48" height="48" rx="8" fill="#0066CC"/>
  <path d="M12 36V12h6.4c3.2 0 5.733.8 7.6 2.4 1.867 1.6 2.8 3.8 2.8 6.6 0 2.8-.933 5-2.8 6.6-1.867 1.6-4.4 2.4-7.6 2.4H12zm3.2-3.2h3.2c2.133 0 3.8-.533 5-1.6 1.2-1.067 1.8-2.533 1.8-4.4s-.6-3.333-1.8-4.4c-1.2-1.067-2.867-1.6-5-1.6h-3.2v12z" fill="white"/>
  <circle cx="34" cy="14" r="6" fill="#00BCF2"/>
  <circle cx="34" cy="34" r="4" fill="#40E0D0"/>
</svg>