<svg xmlns="http://www.w3.org/2000/svg" width="293.557" height="111" viewBox="0 0 293.557 111">
  <path id="Unión_58" data-name="Unión 58" d="M162.986,110.484a6.74,6.74,0,0,1-2.057-1.41,6.167,6.167,0,0,1-1.363-2.034l2.677-1.211a3.207,3.207,0,0,0,.725,1.157,3.587,3.587,0,0,0,1.122.78,3.221,3.221,0,0,0,1.32.282,4.647,4.647,0,0,0,1.337-.192,3.925,3.925,0,0,0,1.158-.558,2.718,2.718,0,0,0,.81-.888,2.362,2.362,0,0,0,.294-1.182v-1.692a4.445,4.445,0,0,1-1.417,1.284,3.867,3.867,0,0,1-1.967.491,6.007,6.007,0,0,1-2.425-.491,6.3,6.3,0,0,1-1.985-1.363,6.415,6.415,0,0,1-1.345-2.01,6.408,6.408,0,0,1,0-4.9,6.415,6.415,0,0,1,1.345-2.01A6.3,6.3,0,0,1,163.2,93.18a6.007,6.007,0,0,1,2.425-.491,3.9,3.9,0,0,1,1.967.486,4.375,4.375,0,0,1,1.417,1.278V93h2.928v12.228a5.213,5.213,0,0,1-.528,2.358,5.6,5.6,0,0,1-1.44,1.824,6.668,6.668,0,0,1-2.088,1.175,7.378,7.378,0,0,1-2.471.414A5.925,5.925,0,0,1,162.986,110.484Zm1.032-14.514a3.507,3.507,0,0,0-1.188,1.266,3.728,3.728,0,0,0,0,3.528,3.46,3.46,0,0,0,1.188,1.26,3.023,3.023,0,0,0,1.644.468,2.9,2.9,0,0,0,1.638-.474,3.291,3.291,0,0,0,1.121-1.272A3.771,3.771,0,0,0,168.83,99a3.734,3.734,0,0,0-.414-1.752,3.413,3.413,0,0,0-1.129-1.272,2.841,2.841,0,0,0-1.625-.48A3,3,0,0,0,164.018,95.97Zm55.6,8.838a6.522,6.522,0,0,1-3.425-3.443,6.281,6.281,0,0,1-.5-2.5,6.155,6.155,0,0,1,1.8-4.392,6.264,6.264,0,0,1,1.968-1.332,6.02,6.02,0,0,1,2.4-.48,4.278,4.278,0,0,1,2.129.528,5.481,5.481,0,0,1,1.6,1.344L225.458,93h2.928v12h-2.928l-.132-1.489a3.892,3.892,0,0,1-1.3,1.3,3.578,3.578,0,0,1-1.913.5A6.207,6.207,0,0,1,219.614,104.808Zm.738-8.838a3.563,3.563,0,0,0,.013,6.054,3.133,3.133,0,0,0,1.674.468,2.97,2.97,0,0,0,1.656-.468,3.237,3.237,0,0,0,1.128-1.266,4.02,4.02,0,0,0,0-3.528,3.209,3.209,0,0,0-1.134-1.265,2.977,2.977,0,0,0-1.65-.468A3.131,3.131,0,0,0,220.352,95.97ZM206.8,104.46A6.373,6.373,0,0,1,203.822,99a6.464,6.464,0,0,1,1.758-4.482,6,6,0,0,1,1.914-1.362,5.758,5.758,0,0,1,5.052.192,6.194,6.194,0,0,1,2.076,1.836L211.982,96.6a2.941,2.941,0,0,0-.99-.743,2.748,2.748,0,0,0-1.17-.265,2.709,2.709,0,0,0-1.56.474,3.408,3.408,0,0,0-1.1,1.248,3.665,3.665,0,0,0,0,3.36,3.367,3.367,0,0,0,1.1,1.242,2.8,2.8,0,0,0,2.748.2,3.06,3.06,0,0,0,.972-.726l2.641,1.428a6.283,6.283,0,0,1-2.076,1.812,5.771,5.771,0,0,1-5.742-.167Zm-57.636,0A6.373,6.373,0,0,1,146.186,99a6.464,6.464,0,0,1,1.758-4.482,6,6,0,0,1,1.914-1.362,5.761,5.761,0,0,1,5.346.36,6.293,6.293,0,0,1,2.172,2.291,6.67,6.67,0,0,1,.342,5.64,6.484,6.484,0,0,1-1.29,2.01,6.025,6.025,0,0,1-1.908,1.363,5.781,5.781,0,0,1-5.352-.36Zm1.458-8.4a3.351,3.351,0,0,0-1.1,1.248A3.6,3.6,0,0,0,149.114,99a3.52,3.52,0,0,0,.42,1.716,3.289,3.289,0,0,0,1.121,1.218,2.783,2.783,0,0,0,1.53.45,2.75,2.75,0,0,0,1.572-.468,3.312,3.312,0,0,0,1.1-1.236,3.724,3.724,0,0,0-.012-3.39,3.334,3.334,0,0,0-1.116-1.236,2.818,2.818,0,0,0-3.1.005Zm33.084,9.157a6.475,6.475,0,0,1-1.806-.378,5.255,5.255,0,0,1-1.542-.87,3.756,3.756,0,0,1-1.032-1.32l2.472-1.056a2.127,2.127,0,0,0,.468.51,2.874,2.874,0,0,0,.774.45,2.647,2.647,0,0,0,.99.18,2.984,2.984,0,0,0,.87-.126,1.553,1.553,0,0,0,.671-.391.934.934,0,0,0,.258-.684.833.833,0,0,0-.306-.689,2.087,2.087,0,0,0-.768-.373q-.462-.126-.895-.234a8.657,8.657,0,0,1-2.118-.707,4.436,4.436,0,0,1-1.572-1.242,2.907,2.907,0,0,1-.594-1.842,3.392,3.392,0,0,1,.63-2.052,4.149,4.149,0,0,1,1.644-1.332,5.156,5.156,0,0,1,2.19-.468,5.807,5.807,0,0,1,2.623.594,4.684,4.684,0,0,1,1.89,1.674l-2.317,1.368a1.98,1.98,0,0,0-.468-.534,2.735,2.735,0,0,0-.684-.409,2.385,2.385,0,0,0-.8-.185,3.205,3.205,0,0,0-.984.1,1.481,1.481,0,0,0-.715.409,1.076,1.076,0,0,0-.27.768.742.742,0,0,0,.36.678,2.919,2.919,0,0,0,.87.342q.51.12.978.265a12.054,12.054,0,0,1,1.985.851,4.634,4.634,0,0,1,1.494,1.237,2.674,2.674,0,0,1,.54,1.751,3.155,3.155,0,0,1-.7,2.034,4.418,4.418,0,0,1-1.794,1.327,4.964,4.964,0,0,1-1.918.377Q183.926,105.233,183.71,105.216Zm15.3-.216V93h2.928v12Zm-7.236,0V95.928H190V93h1.776V89.232H194.7V93h2.328v2.929H194.7V105Zm-17.232,0V93h2.929v12Zm-33.264,0V87h2.929v18Zm-33.439-3.543V4.5h1v96.958ZM175.25,91.68l.96-3.456h2.928l-1.944,3.456Zm24.156-.654a1.514,1.514,0,0,1,0-2.142,1.491,1.491,0,0,1,1.08-.432,1.47,1.47,0,0,1,1.074.432,1.536,1.536,0,0,1,.006,2.142,1.459,1.459,0,0,1-1.068.426A1.515,1.515,0,0,1,199.406,91.026ZM71.813,81.97a2.512,2.512,0,1,1,2.512,2.513A2.513,2.513,0,0,1,71.813,81.97ZM30.7,84.345a7.316,7.316,0,0,1-6.658-7.383V38.224a1.764,1.764,0,0,0-1.758-1.759H7.424a7.341,7.341,0,0,1-7.408-6.68C.006,29.642,0,29.5,0,29.356v-.125a7.18,7.18,0,0,1,7.17-7.109H64.7a2.427,2.427,0,0,1,2.4,1.892A2.392,2.392,0,0,1,64.767,26.9H7.239a2.435,2.435,0,0,0-2.408,1.889A2.4,2.4,0,0,0,7.17,31.685h16.6a5.053,5.053,0,0,1,5.053,5.054V77.146a2.413,2.413,0,0,0,1.869,2.385,2.372,2.372,0,0,0,2.865-2.316V67.438a2.429,2.429,0,0,1,1.891-2.4,2.394,2.394,0,0,1,2.889,2.34v9.841a7.154,7.154,0,0,1-7.146,7.146C31.03,84.362,30.867,84.356,30.7,84.345ZM201.842,82V64h2.928v1.524a4.776,4.776,0,0,1,1.446-1.326,3.856,3.856,0,0,1,2.01-.51,6.145,6.145,0,0,1,2.46.492,6.422,6.422,0,0,1,2.011,1.362,6.329,6.329,0,0,1,1.355,2.011A6.174,6.174,0,0,1,214.538,70a6.29,6.29,0,0,1-1.841,4.482,6.407,6.407,0,0,1-2.011,1.362,6.129,6.129,0,0,1-2.46.492,3.856,3.856,0,0,1-2.01-.51A4.776,4.776,0,0,1,204.77,74.5V82Zm4.716-15.018a3.3,3.3,0,0,0-1.129,1.266,3.981,3.981,0,0,0,0,3.51,3.28,3.28,0,0,0,1.129,1.272,2.9,2.9,0,0,0,1.632.474,3.186,3.186,0,0,0,1.692-.468,3.586,3.586,0,0,0,1.224-4.788,3.564,3.564,0,0,0-1.218-1.266,3.153,3.153,0,0,0-1.7-.473A2.9,2.9,0,0,0,206.558,66.982Zm65.106,8.478A6.371,6.371,0,0,1,268.682,70a6.46,6.46,0,0,1,1.759-4.482,6.007,6.007,0,0,1,1.913-1.363,5.768,5.768,0,0,1,5.346.36,6.3,6.3,0,0,1,2.173,2.292,6.67,6.67,0,0,1,.342,5.64,6.486,6.486,0,0,1-1.291,2.01,5.988,5.988,0,0,1-1.908,1.362,5.772,5.772,0,0,1-5.351-.36Zm1.458-8.4a3.336,3.336,0,0,0-1.1,1.248A3.6,3.6,0,0,0,271.61,70a3.514,3.514,0,0,0,.419,1.715,3.308,3.308,0,0,0,1.122,1.219,2.851,2.851,0,0,0,3.1-.018,3.323,3.323,0,0,0,1.1-1.237,3.726,3.726,0,0,0-.013-3.389,3.329,3.329,0,0,0-1.116-1.237,2.819,2.819,0,0,0-3.1.006Zm-18.774,8.4A6.371,6.371,0,0,1,251.366,70a6.46,6.46,0,0,1,1.759-4.482,6.007,6.007,0,0,1,1.913-1.363,5.765,5.765,0,0,1,5.053.193,6.172,6.172,0,0,1,2.075,1.836l-2.64,1.416a2.965,2.965,0,0,0-.99-.744,2.761,2.761,0,0,0-1.17-.264,2.707,2.707,0,0,0-1.56.474,3.4,3.4,0,0,0-1.1,1.247,3.666,3.666,0,0,0,0,3.361,3.351,3.351,0,0,0,1.1,1.242,2.8,2.8,0,0,0,2.748.2,3.06,3.06,0,0,0,.972-.726l2.64,1.428a6.3,6.3,0,0,1-2.075,1.812,5.768,5.768,0,0,1-5.742-.168Zm-13.194.348a6.525,6.525,0,0,1-3.426-3.444,6.273,6.273,0,0,1-.5-2.5,6.145,6.145,0,0,1,1.8-4.392A6.26,6.26,0,0,1,241,64.144a6.02,6.02,0,0,1,2.4-.48,4.283,4.283,0,0,1,2.13.527,5.5,5.5,0,0,1,1.6,1.345L247,64h2.928V76H247l-.132-1.488a3.89,3.89,0,0,1-1.3,1.3,3.581,3.581,0,0,1-1.914.5A6.215,6.215,0,0,1,241.154,75.808Zm.738-8.838a3.564,3.564,0,0,0,.012,6.054,3.145,3.145,0,0,0,1.674.468,2.975,2.975,0,0,0,1.656-.468,3.237,3.237,0,0,0,1.128-1.266,4.012,4.012,0,0,0,0-3.528,3.218,3.218,0,0,0-1.134-1.266,2.98,2.98,0,0,0-1.65-.468A3.129,3.129,0,0,0,241.892,66.97ZM218.72,75.46a6.293,6.293,0,0,1-2.172-2.291,6.656,6.656,0,0,1-.342-5.634,6.445,6.445,0,0,1,1.29-2.016,6,6,0,0,1,1.914-1.363,5.818,5.818,0,0,1,4.9.1,5.917,5.917,0,0,1,1.986,1.625A6.685,6.685,0,0,1,227.654,71h-8.772a3.506,3.506,0,0,0,.552,1.206,2.821,2.821,0,0,0,2.3,1.183,2.586,2.586,0,0,0,1.4-.366,3.215,3.215,0,0,0,1.049-1.026l2.988.7a6.367,6.367,0,0,1-2.183,2.61,5.744,5.744,0,0,1-6.27.162Zm1.686-8.9a3.227,3.227,0,0,0-1.038.923,3.416,3.416,0,0,0-.582,1.314h5.9a3.116,3.116,0,0,0-.558-1.3,3.248,3.248,0,0,0-1.049-.931,2.722,2.722,0,0,0-1.345-.347A2.681,2.681,0,0,0,220.406,66.562Zm-29.466,8.9A6.373,6.373,0,0,1,187.958,70a6.464,6.464,0,0,1,1.758-4.482,6,6,0,0,1,1.914-1.363,5.768,5.768,0,0,1,5.346.36,6.3,6.3,0,0,1,2.172,2.292,6.67,6.67,0,0,1,.342,5.64,6.467,6.467,0,0,1-1.29,2.01,6,6,0,0,1-1.908,1.362,5.774,5.774,0,0,1-5.352-.36Zm1.458-8.4a3.341,3.341,0,0,0-1.1,1.248A3.6,3.6,0,0,0,190.885,70a3.514,3.514,0,0,0,.42,1.715,3.3,3.3,0,0,0,1.122,1.219,2.849,2.849,0,0,0,3.1-.018,3.307,3.307,0,0,0,1.1-1.237,3.723,3.723,0,0,0-.012-3.389,3.337,3.337,0,0,0-1.116-1.237,2.82,2.82,0,0,0-3.1.006ZM171.89,75.67a4.886,4.886,0,0,1-1.723-1.716,4.579,4.579,0,0,1-.642-2.394V64h2.928v6.792a2.464,2.464,0,0,0,.348,1.29,2.614,2.614,0,0,0,.93.924,2.592,2.592,0,0,0,2.574,0,2.628,2.628,0,0,0,.924-.924,2.464,2.464,0,0,0,.348-1.29V64h2.928l.012,12H177.59l-.012-1.092a4.635,4.635,0,0,1-1.476,1.026,4.448,4.448,0,0,1-1.824.378A4.589,4.589,0,0,1,171.89,75.67Zm-27.409.138a6.527,6.527,0,0,1-3.425-3.444,6.273,6.273,0,0,1-.5-2.5,6.155,6.155,0,0,1,1.8-4.392,6.264,6.264,0,0,1,1.968-1.332,6.02,6.02,0,0,1,2.4-.48,4.277,4.277,0,0,1,2.129.527,5.484,5.484,0,0,1,1.6,1.345L150.326,64h2.928V76h-2.928l-.132-1.488a3.892,3.892,0,0,1-1.3,1.3,3.578,3.578,0,0,1-1.913.5A6.223,6.223,0,0,1,144.482,75.808Zm.738-8.838a3.563,3.563,0,0,0,.013,6.054,3.141,3.141,0,0,0,1.674.468,2.977,2.977,0,0,0,1.656-.468,3.237,3.237,0,0,0,1.128-1.266,4.02,4.02,0,0,0,0-3.528,3.218,3.218,0,0,0-1.134-1.266,2.984,2.984,0,0,0-1.65-.468A3.132,3.132,0,0,0,145.219,66.97ZM290.63,76V69.184a2.464,2.464,0,0,0-.348-1.29,2.6,2.6,0,0,0-.93-.924,2.6,2.6,0,0,0-2.58,0,2.554,2.554,0,0,0-.923.924,2.493,2.493,0,0,0-.342,1.29V76h-2.929l-.012-12h2.928l.013,1.068a4.514,4.514,0,0,1,3.3-1.4,4.592,4.592,0,0,1,2.389.642,4.876,4.876,0,0,1,1.722,1.716,4.571,4.571,0,0,1,.642,2.394V76Zm-26.76,0V64H266.8V76Zm-34.249,0-.012-12h2.928l.013,1.068a4.514,4.514,0,0,1,3.3-1.4,4.714,4.714,0,0,1,1.32.192l-1.152,2.952a2.473,2.473,0,0,0-.912-.18,2.5,2.5,0,0,0-1.291.342,2.554,2.554,0,0,0-.923.924,2.493,2.493,0,0,0-.342,1.29V76ZM162.59,76V66.928h-1.776V64h1.776V60.232h2.929V64h2.327v2.928h-2.327V76ZM71.934,72.442V36.81a.234.234,0,0,0-.185-.259.226.226,0,0,0-.284.067L58.323,54.8A4.135,4.135,0,0,1,54.979,56.5H54.97a4.134,4.134,0,0,1-3.344-1.723L38.808,36.9a.228.228,0,0,0-.284-.067.235.235,0,0,0-.185.259V48.327a2.39,2.39,0,0,1-4.781,0V37.088a5.055,5.055,0,0,1,9.051-3.094c.019.023.036.048.053.071l12.32,17.192L67.623,33.771l.051-.069a5.055,5.055,0,0,1,9.041,3.109V72.442a2.39,2.39,0,0,1-4.781,0ZM273.926,62.68l.96-3.456h2.928L275.87,62.68Zm-9.66-.653a1.512,1.512,0,0,1,0-2.142,1.491,1.491,0,0,1,1.08-.432,1.47,1.47,0,0,1,1.074.432,1.536,1.536,0,0,1,.006,2.142,1.464,1.464,0,0,1-1.068.426A1.518,1.518,0,0,1,264.266,62.026ZM33.552,57.863a2.4,2.4,0,1,1,2.4,2.4A2.4,2.4,0,0,1,33.552,57.863Zm189.326-5.378a6.787,6.787,0,0,1-2.058-1.41,6.174,6.174,0,0,1-1.362-2.034l2.676-1.212a3.213,3.213,0,0,0,.726,1.158,3.587,3.587,0,0,0,1.122.78,3.235,3.235,0,0,0,1.319.282,4.649,4.649,0,0,0,1.338-.192A3.947,3.947,0,0,0,227.8,49.3a2.727,2.727,0,0,0,.81-.888,2.366,2.366,0,0,0,.293-1.182V45.536a4.44,4.44,0,0,1-1.416,1.283,3.86,3.86,0,0,1-1.968.492,5.988,5.988,0,0,1-2.424-.492,6.312,6.312,0,0,1-1.986-1.362,6.438,6.438,0,0,1-1.344-2.01,6.408,6.408,0,0,1,0-4.9,6.432,6.432,0,0,1,1.344-2.011,6.312,6.312,0,0,1,1.986-1.362,5.988,5.988,0,0,1,2.424-.492,3.9,3.9,0,0,1,1.968.486,4.382,4.382,0,0,1,1.416,1.278V35h2.929V47.228a5.225,5.225,0,0,1-.528,2.358,5.6,5.6,0,0,1-1.44,1.823,6.68,6.68,0,0,1-2.088,1.176A7.383,7.383,0,0,1,225.3,53,5.921,5.921,0,0,1,222.878,52.484ZM223.91,37.97a3.507,3.507,0,0,0-1.188,1.266,3.722,3.722,0,0,0,0,3.528,3.467,3.467,0,0,0,1.188,1.26,3.03,3.03,0,0,0,1.643.468,2.891,2.891,0,0,0,1.638-.474,3.294,3.294,0,0,0,1.122-1.272A3.784,3.784,0,0,0,228.722,41a3.72,3.72,0,0,0-.414-1.752,3.39,3.39,0,0,0-1.128-1.272,2.844,2.844,0,0,0-1.626-.481A3,3,0,0,0,223.91,37.97Zm31.127,8.838a6.527,6.527,0,0,1-3.425-3.444,6.273,6.273,0,0,1-.5-2.5,6.155,6.155,0,0,1,1.8-4.392,6.249,6.249,0,0,1,1.968-1.332,6,6,0,0,1,2.4-.48,4.277,4.277,0,0,1,2.129.527,5.47,5.47,0,0,1,1.6,1.345L260.882,35h2.928V47h-2.928l-.132-1.488a3.9,3.9,0,0,1-1.3,1.3,3.586,3.586,0,0,1-1.913.5A6.223,6.223,0,0,1,255.038,46.808Zm.738-8.838a3.563,3.563,0,0,0,.013,6.054,3.141,3.141,0,0,0,1.674.468,2.977,2.977,0,0,0,1.656-.468,3.237,3.237,0,0,0,1.128-1.266,4.02,4.02,0,0,0,0-3.528,3.218,3.218,0,0,0-1.134-1.266,2.984,2.984,0,0,0-1.65-.468A3.132,3.132,0,0,0,255.776,37.97Zm-13.548,8.49A6.373,6.373,0,0,1,239.246,41,6.464,6.464,0,0,1,241,36.518a6,6,0,0,1,1.914-1.363,5.763,5.763,0,0,1,5.052.193,6.175,6.175,0,0,1,2.076,1.836L247.406,38.6a2.944,2.944,0,0,0-.99-.744,2.761,2.761,0,0,0-1.17-.264,2.7,2.7,0,0,0-1.56.474,3.412,3.412,0,0,0-1.1,1.247,3.666,3.666,0,0,0,0,3.361,3.366,3.366,0,0,0,1.1,1.242,2.8,2.8,0,0,0,2.748.2,3.06,3.06,0,0,0,.972-.726l2.641,1.428a6.3,6.3,0,0,1-2.076,1.812,5.768,5.768,0,0,1-5.742-.168Zm-33.168,0A6.371,6.371,0,0,1,206.077,41a6.46,6.46,0,0,1,1.759-4.482,6.007,6.007,0,0,1,1.913-1.363,5.768,5.768,0,0,1,5.346.36,6.291,6.291,0,0,1,2.173,2.292,6.67,6.67,0,0,1,.342,5.64,6.5,6.5,0,0,1-1.291,2.01,6,6,0,0,1-1.908,1.362,5.772,5.772,0,0,1-5.351-.36Zm1.458-8.4a3.336,3.336,0,0,0-1.1,1.248A3.6,3.6,0,0,0,209.006,41a3.516,3.516,0,0,0,.419,1.715,3.308,3.308,0,0,0,1.122,1.219,2.851,2.851,0,0,0,3.1-.018,3.323,3.323,0,0,0,1.1-1.237,3.726,3.726,0,0,0-.013-3.389,3.322,3.322,0,0,0-1.116-1.237,2.819,2.819,0,0,0-3.1.006Zm-20.07,8.4A6.371,6.371,0,0,1,187.465,41a6.46,6.46,0,0,1,1.759-4.482,6.007,6.007,0,0,1,1.913-1.363,5.768,5.768,0,0,1,5.346.36,6.291,6.291,0,0,1,2.173,2.292,6.67,6.67,0,0,1,.342,5.64,6.5,6.5,0,0,1-1.291,2.01A6,6,0,0,1,195.8,46.82a5.772,5.772,0,0,1-5.351-.36Zm1.458-8.4a3.336,3.336,0,0,0-1.1,1.248A3.6,3.6,0,0,0,190.394,41a3.516,3.516,0,0,0,.419,1.715,3.308,3.308,0,0,0,1.122,1.219,2.851,2.851,0,0,0,3.1-.018,3.323,3.323,0,0,0,1.1-1.237,3.726,3.726,0,0,0-.013-3.389,3.322,3.322,0,0,0-1.116-1.237,2.819,2.819,0,0,0-3.1.006Zm-26.851,8.4A6.373,6.373,0,0,1,162.074,41a6.464,6.464,0,0,1,1.758-4.482,6,6,0,0,1,1.914-1.363,5.763,5.763,0,0,1,5.052.193,6.167,6.167,0,0,1,2.076,1.836l-2.64,1.416a2.953,2.953,0,0,0-.99-.744,2.764,2.764,0,0,0-1.17-.264,2.706,2.706,0,0,0-1.561.474,3.4,3.4,0,0,0-1.1,1.247,3.659,3.659,0,0,0,0,3.361,3.356,3.356,0,0,0,1.1,1.242,2.8,2.8,0,0,0,2.749.2,3.06,3.06,0,0,0,.972-.726l2.64,1.428a6.3,6.3,0,0,1-2.076,1.812,5.768,5.768,0,0,1-5.742-.168Zm-13.188,0a6.293,6.293,0,0,1-2.172-2.291,6.656,6.656,0,0,1-.342-5.634,6.445,6.445,0,0,1,1.29-2.016,6,6,0,0,1,1.914-1.363,5.818,5.818,0,0,1,4.9.1,5.917,5.917,0,0,1,1.986,1.625A6.685,6.685,0,0,1,160.8,42H152.03a3.506,3.506,0,0,0,.552,1.206,2.821,2.821,0,0,0,2.3,1.183,2.594,2.594,0,0,0,1.4-.366,3.216,3.216,0,0,0,1.049-1.026l2.988.7a6.373,6.373,0,0,1-2.183,2.61,5.744,5.744,0,0,1-6.27.162Zm1.686-8.9a3.227,3.227,0,0,0-1.038.923,3.41,3.41,0,0,0-.582,1.314h5.9a3.116,3.116,0,0,0-.558-1.3,3.238,3.238,0,0,0-1.049-.931,2.712,2.712,0,0,0-1.345-.347A2.681,2.681,0,0,0,153.553,37.562ZM234.434,47V35h2.928V47ZM201.17,47V29H204.1V47ZM183.1,47V40.184a2.462,2.462,0,0,0-.348-1.29,2.592,2.592,0,0,0-.93-.924,2.6,2.6,0,0,0-2.58,0,2.547,2.547,0,0,0-.923.924,2.491,2.491,0,0,0-.342,1.29V47h-2.929l-.012-12h2.928l.013,1.068a4.514,4.514,0,0,1,3.3-1.4,4.584,4.584,0,0,1,2.389.642,4.869,4.869,0,0,1,1.722,1.716,4.571,4.571,0,0,1,.642,2.394V47Zm-40.644,0V37.928h-1.776V35h1.776V31.232h2.928V35h2.328v2.928h-2.328V47Zm68.868-13.32.96-3.456h2.928l-1.944,3.456Zm23.508-.653a1.514,1.514,0,0,1,0-2.142,1.491,1.491,0,0,1,1.08-.432,1.47,1.47,0,0,1,1.074.432,1.536,1.536,0,0,1,.006,2.142,1.463,1.463,0,0,1-1.068.426A1.518,1.518,0,0,1,234.83,33.026ZM71.813,24.512a2.512,2.512,0,1,1,2.512,2.513A2.513,2.513,0,0,1,71.813,24.512ZM234.344,17.46A6.373,6.373,0,0,1,231.362,12a6.464,6.464,0,0,1,1.758-4.482,6,6,0,0,1,1.914-1.362,5.761,5.761,0,0,1,5.346.36,6.289,6.289,0,0,1,2.172,2.292,6.4,6.4,0,0,1,.81,3.191,6.375,6.375,0,0,1-.468,2.448,6.488,6.488,0,0,1-1.29,2.011A6.022,6.022,0,0,1,239.7,17.82a5.774,5.774,0,0,1-5.352-.36Zm1.458-8.4a3.348,3.348,0,0,0-1.1,1.247A3.6,3.6,0,0,0,234.29,12a3.518,3.518,0,0,0,.42,1.716,3.289,3.289,0,0,0,1.121,1.218,2.851,2.851,0,0,0,3.1-.018,3.305,3.305,0,0,0,1.1-1.236,3.724,3.724,0,0,0-.012-3.39A3.334,3.334,0,0,0,238.9,9.054a2.82,2.82,0,0,0-3.1.006Zm-18.774,8.4A6.373,6.373,0,0,1,214.046,12,6.464,6.464,0,0,1,215.8,7.518a6,6,0,0,1,1.914-1.362,5.758,5.758,0,0,1,5.052.192,6.194,6.194,0,0,1,2.076,1.836L222.206,9.6a2.944,2.944,0,0,0-.99-.744,2.747,2.747,0,0,0-1.17-.264,2.709,2.709,0,0,0-1.56.473,3.415,3.415,0,0,0-1.1,1.248,3.665,3.665,0,0,0,0,3.36,3.353,3.353,0,0,0,1.1,1.242,2.8,2.8,0,0,0,2.748.2,3.071,3.071,0,0,0,.972-.725l2.641,1.427a6.3,6.3,0,0,1-2.076,1.813,5.768,5.768,0,0,1-5.742-.168Zm-13.11.21a4.881,4.881,0,0,1-1.722-1.715,4.584,4.584,0,0,1-.642-2.394V6h2.928v6.791a2.465,2.465,0,0,0,.348,1.291,2.6,2.6,0,0,0,.93.923,2.592,2.592,0,0,0,2.574,0,2.618,2.618,0,0,0,.924-.923,2.464,2.464,0,0,0,.347-1.291V6h2.929l.012,12h-2.928l-.013-1.092a4.624,4.624,0,0,1-1.476,1.026,4.444,4.444,0,0,1-1.823.378A4.585,4.585,0,0,1,203.918,17.67ZM185.5,17.46A6.373,6.373,0,0,1,182.522,12a6.464,6.464,0,0,1,1.758-4.482,6,6,0,0,1,1.914-1.362,5.761,5.761,0,0,1,5.346.36,6.289,6.289,0,0,1,2.172,2.292,6.4,6.4,0,0,1,.81,3.191,6.375,6.375,0,0,1-.468,2.448,6.471,6.471,0,0,1-1.29,2.011,6.012,6.012,0,0,1-1.908,1.362,5.774,5.774,0,0,1-5.352-.36Zm1.458-8.4a3.338,3.338,0,0,0-1.1,1.247A3.6,3.6,0,0,0,185.45,12a3.518,3.518,0,0,0,.42,1.716,3.291,3.291,0,0,0,1.122,1.218,2.849,2.849,0,0,0,3.1-.018,3.3,3.3,0,0,0,1.1-1.236,3.724,3.724,0,0,0-.012-3.39,3.334,3.334,0,0,0-1.116-1.236,2.82,2.82,0,0,0-3.1.006Zm-30.9,8.748a6.533,6.533,0,0,1-3.426-3.444,6.292,6.292,0,0,1-.5-2.5,6.155,6.155,0,0,1,1.8-4.392,6.239,6.239,0,0,1,1.968-1.332,6,6,0,0,1,2.4-.481,4.284,4.284,0,0,1,2.13.528,5.493,5.493,0,0,1,1.6,1.344L161.906,6h2.929V18h-2.929l-.131-1.488a3.906,3.906,0,0,1-1.3,1.3,3.581,3.581,0,0,1-1.914.5A6.219,6.219,0,0,1,156.062,17.808ZM156.8,8.97A3.513,3.513,0,0,0,155.137,12a3.508,3.508,0,0,0,1.674,3.024,3.137,3.137,0,0,0,1.674.468,2.966,2.966,0,0,0,1.656-.468,3.223,3.223,0,0,0,1.129-1.265,4.02,4.02,0,0,0,0-3.528,3.218,3.218,0,0,0-1.134-1.266,2.978,2.978,0,0,0-1.651-.468A3.131,3.131,0,0,0,156.8,8.97Zm19.734,9.246a6.4,6.4,0,0,1-1.806-.378,5.255,5.255,0,0,1-1.542-.87,3.752,3.752,0,0,1-1.032-1.319l2.472-1.057a2.108,2.108,0,0,0,.468.51,2.837,2.837,0,0,0,.774.45,2.647,2.647,0,0,0,.99.18,2.974,2.974,0,0,0,.869-.126,1.55,1.55,0,0,0,.672-.39.939.939,0,0,0,.258-.684.837.837,0,0,0-.306-.69,2.083,2.083,0,0,0-.769-.372q-.462-.127-.894-.234a8.608,8.608,0,0,1-2.118-.708A4.428,4.428,0,0,1,173,11.286a2.906,2.906,0,0,1-.594-1.842,3.386,3.386,0,0,1,.63-2.052A4.149,4.149,0,0,1,174.68,6.06a5.17,5.17,0,0,1,2.19-.468,5.8,5.8,0,0,1,2.622.594,4.672,4.672,0,0,1,1.89,1.674l-2.316,1.368a2,2,0,0,0-.468-.534,2.76,2.76,0,0,0-.684-.408,2.408,2.408,0,0,0-.8-.186,3.21,3.21,0,0,0-.985.1,1.488,1.488,0,0,0-.714.408,1.077,1.077,0,0,0-.27.768.743.743,0,0,0,.36.679,2.944,2.944,0,0,0,.87.342q.51.12.977.264a12.066,12.066,0,0,1,1.986.852,4.641,4.641,0,0,1,1.494,1.236,2.675,2.675,0,0,1,.54,1.752,3.164,3.164,0,0,1-.7,2.034,4.427,4.427,0,0,1-1.795,1.326,4.942,4.942,0,0,1-1.916.377Q176.751,18.233,176.534,18.216ZM253.31,18V11.184a2.464,2.464,0,0,0-.347-1.291,2.6,2.6,0,0,0-.931-.923,2.6,2.6,0,0,0-2.579,0,2.554,2.554,0,0,0-.924.923,2.5,2.5,0,0,0-.342,1.291V18h-2.928l-.013-12h2.929l.012,1.067a4.518,4.518,0,0,1,3.3-1.4,4.581,4.581,0,0,1,2.388.643A4.874,4.874,0,0,1,255.6,8.022a4.576,4.576,0,0,1,.643,2.394V18Zm-26.76,0V6h2.928V18Zm-30.324,0V0h2.928V18Zm-54.949,0V1.2h2.929V15.072h7V18ZM236.605,4.68l.96-3.456h2.928L238.549,4.68Zm-9.66-.654a1.423,1.423,0,0,1-.444-1.074,1.431,1.431,0,0,1,.444-1.068,1.491,1.491,0,0,1,1.08-.432,1.47,1.47,0,0,1,1.074.432,1.44,1.44,0,0,1,.438,1.068,1.444,1.444,0,0,1-.432,1.074,1.46,1.46,0,0,1-1.068.427A1.515,1.515,0,0,1,226.946,4.026Z" fill="#fff"/>
</svg>
