<svg width="24" height="24" viewBox="0 0 24 24" fill="none" xmlns="http://www.w3.org/2000/svg">
<g clip-path="url(#clip0_1759_59218)">
<path d="M12.0001 23.2932C18.2593 23.2932 23.3334 18.237 23.3334 11.9999C23.3334 5.76274 18.2593 0.706543 12.0001 0.706543C5.74085 0.706543 0.666748 5.76274 0.666748 11.9999C0.666748 18.237 5.74085 23.2932 12.0001 23.2932Z" fill="url(#paint0_radial_1759_59218)"/>
<path d="M12 21.8267C17.4492 21.8267 21.8666 17.4271 21.8666 12C21.8666 6.57289 17.4492 2.17334 12 2.17334C6.55076 2.17334 2.1333 6.57289 2.1333 12C2.1333 17.4271 6.55076 21.8267 12 21.8267Z" fill="white"/>
<path d="M3.62671 12.5864C3.76212 14.5996 4.62453 16.4951 6.05338 17.9198L8.72004 15.2531C7.99837 14.5322 7.53044 13.5963 7.38671 12.5864H3.62671Z" fill="#9CEBFF"/>
<path d="M17.5067 5.69332C16.134 4.49342 14.4057 3.77681 12.5867 3.65332V7.37332C13.4181 7.46867 14.207 7.79164 14.8667 8.30665L17.5067 5.69332Z" fill="#32BEDD"/>
<path d="M6.49341 5.69332L9.16007 8.35999C9.8197 7.84498 10.6087 7.52201 11.4401 7.42665V3.65332C9.61177 3.77107 7.87322 4.48804 6.49341 5.69332Z" fill="#32BEDD"/>
<path d="M15.7068 9.13335C16.2157 9.79782 16.5421 10.5838 16.6535 11.4134H20.3735C20.253 9.60159 19.5357 7.88079 18.3335 6.52002L15.7068 9.13335Z" fill="#32BEDD"/>
<path d="M8.29338 9.13346L5.62671 6.4668C4.42811 7.84716 3.72428 9.58795 3.62671 11.4135H7.34671C7.45809 10.5839 7.78443 9.79793 8.29338 9.13346Z" fill="#50E6FF"/>
<path d="M18.8534 9.33316C18.7941 9.19038 18.682 9.07601 18.5404 9.01391C18.3988 8.9518 18.2387 8.94676 18.0934 8.99982L12.6001 11.2132L13.0268 12.2932L18.5201 10.1198C18.5952 10.0921 18.6637 10.0492 18.7216 9.99396C18.7795 9.9387 18.8255 9.87218 18.8567 9.7985C18.8879 9.72481 18.9037 9.64552 18.9032 9.56549C18.9026 9.48546 18.8857 9.4064 18.8534 9.33316Z" fill="#F04049"/>
<path d="M11.9999 13.5999C12.8836 13.5999 13.5999 12.8836 13.5999 11.9999C13.5999 11.1162 12.8836 10.3999 11.9999 10.3999C11.1162 10.3999 10.3999 11.1162 10.3999 11.9999C10.3999 12.8836 11.1162 13.5999 11.9999 13.5999Z" fill="url(#paint1_radial_1759_59218)"/>
</g>
<defs>
<radialGradient id="paint0_radial_1759_59218" cx="0" cy="0" r="1" gradientUnits="userSpaceOnUse" gradientTransform="translate(12.0097 12.0459) scale(11.3389 11.3389)">
<stop offset="0.18" stop-color="#5EA0EF"/>
<stop offset="0.56" stop-color="#5C9FEE"/>
<stop offset="0.69" stop-color="#559CED"/>
<stop offset="0.78" stop-color="#4A97E9"/>
<stop offset="0.86" stop-color="#3990E4"/>
<stop offset="0.93" stop-color="#2387DE"/>
<stop offset="0.99" stop-color="#087BD6"/>
<stop offset="1" stop-color="#0078D4"/>
</radialGradient>
<radialGradient id="paint1_radial_1759_59218" cx="0" cy="0" r="1" gradientUnits="userSpaceOnUse" gradientTransform="translate(12.0012 9.5539) scale(3.42)">
<stop offset="0.19" stop-color="#8C8E90"/>
<stop offset="0.35" stop-color="#848688"/>
<stop offset="0.6" stop-color="#6E7071"/>
<stop offset="0.91" stop-color="#4A4B4C"/>
<stop offset="1" stop-color="#3E3F3F"/>
</radialGradient>
<clipPath id="clip0_1759_59218">
<rect width="24" height="24" fill="white"/>
</clipPath>
</defs>
</svg>
