<?xml version="1.0" encoding="UTF-8"?>
<svg id="katman_1" data-name="katman 1" xmlns="http://www.w3.org/2000/svg" version="1.1" viewBox="0 0 841.89 595.28">
  <defs>
    <style>
      .cls-1 {
        fill: #f26e7e;
      }

      .cls-1, .cls-2, .cls-3, .cls-4 {
        fill-rule: evenodd;
        stroke-width: 0px;
      }

      .cls-2 {
        fill: #000;
      }

      .cls-3 {
        fill: #8a3391;
      }

      .cls-4 {
        fill: #f7bf2a;
      }
    </style>
  </defs>
  <path class="cls-1" d="M112.01,306.11c6.19-3.58,6.2-15.15.02-25.86-6.18-10.71-16.21-16.48-22.41-12.91-6.19,3.58-6.2,15.15-.02,25.86,6.18,10.71,16.21,16.48,22.41,12.91ZM112.05,329.03c6.18,10.71,6.17,22.28-.02,25.86-6.19,3.58-16.22-2.2-22.41-12.91-6.18-10.71-6.17-22.28.02-25.86,6.19-3.58,16.22,2.2,22.41,12.91ZM154.26,353.43c6.18,10.71,6.17,22.28-.02,25.86-6.19,3.58-16.22-2.2-22.41-12.91-6.18-10.71-6.17-22.28.02-25.86,6.19-3.58,16.22,2.2,22.41,12.91ZM154.24,304.65c6.18,10.71,6.17,22.28-.02,25.86-6.19,3.58-16.22-2.2-22.41-12.91-6.18-10.71-6.17-22.28.02-25.86,6.19-3.58,16.22,2.2,22.41,12.91Z"/>
  <path class="cls-3" d="M238.68,293.22c6.18-10.71,6.17-22.28-.02-25.86-6.19-3.58-16.22,2.2-22.41,12.91-6.18,10.71-6.17,22.28.02,25.86,6.19,3.58,16.22-2.2,22.41-12.91ZM238.68,316.14c6.19,3.58,6.2,15.15.02,25.86-6.18,10.71-16.21,16.48-22.41,12.91-6.19-3.58-6.2-15.15-.02-25.86,6.18-10.71,16.21-16.48,22.41-12.91ZM196.48,340.5c6.19,3.58,6.2,15.15.02,25.86-6.18,10.7-16.21,16.48-22.41,12.91s-6.2-15.15-.02-25.86c6.18-10.71,16.21-16.48,22.41-12.91ZM196.46,291.73c6.19,3.58,6.2,15.15.02,25.86-6.18,10.71-16.21,16.48-22.41,12.91-6.19-3.58-6.2-15.15-.02-25.86,6.18-10.71,16.21-16.48,22.41-12.91Z"/>
  <path class="cls-4" d="M186.52,225.83c0,7.15-10.02,12.95-22.38,12.95s-22.38-5.8-22.38-12.95,10.02-12.95,22.38-12.95,22.38,5.8,22.38,12.95ZM144.32,250.17c0,7.15-10.02,12.95-22.38,12.95s-22.38-5.8-22.38-12.95,10.02-12.95,22.38-12.95,22.38,5.8,22.38,12.95ZM206.39,263.12c12.36,0,22.38-5.8,22.38-12.95s-10.02-12.95-22.38-12.95-22.38,5.8-22.38,12.95,10.02,12.95,22.38,12.95ZM186.52,274.56c0,7.15-10.02,12.95-22.38,12.95s-22.38-5.8-22.38-12.95,10.02-12.95,22.38-12.95,22.38,5.8,22.38,12.95Z"/>
  <path class="cls-2" d="M487.54,242.97h8.32c2.58,0,4.02,1.43,4.02,4.02v96.62c0,2.58-1.43,4.02-4.02,4.02h-8.32c-2.58,0-4.02-1.43-4.02-4.02v-96.62c0-2.58,1.43-4.02,4.02-4.02ZM327.5,347.63c2.58,0,4.02-1.43,4.02-4.02v-32.35h16.86c21.38,0,34.79-12.77,34.79-31.99s-13.41-31.99-34.79-31.99h-29.77c-2.58,0-4.02,1.43-4.02,4.02v92.32c0,2.58,1.43,4.02,4.02,4.02h8.89ZM331.52,261.55h15.78c12.05,0,18.87,6.96,18.87,17.72s-6.82,17.79-18.87,17.79h-15.78v-35.51ZM395.22,277.4v41.75c0,18.29,11.84,30.13,29.7,30.13,9.47,0,17.57-4.66,22.6-11.48v5.81c0,2.58,1.43,4.02,4.02,4.02h8.39c2.58,0,4.02-1.43,4.02-4.02v-66.21c0-2.58-1.43-4.02-4.02-4.02h-8.39c-2.58,0-4.02,1.43-4.02,4.02v36.44c0,12.34-8.89,21.02-19.22,21.02s-16.71-7.03-16.71-17.07v-40.39c0-2.58-1.43-4.02-4.02-4.02h-8.32c-2.58,0-4.02,1.43-4.02,4.02ZM518.1,277.4v41.75c0,18.29,11.84,30.13,29.7,30.13,9.47,0,17.58-4.66,22.6-11.48v5.81c0,2.58,1.43,4.02,4.02,4.02h8.39c2.58,0,4.02-1.43,4.02-4.02v-66.21c0-2.58-1.43-4.02-4.02-4.02h-8.39c-2.58,0-4.02,1.43-4.02,4.02v36.44c0,12.34-8.89,21.02-19.23,21.02s-16.71-7.03-16.71-17.07v-40.39c0-2.58-1.43-4.02-4.02-4.02h-8.32c-2.58,0-4.02,1.43-4.02,4.02ZM721.39,301.87v41.82c0,2.58-1.43,4.02-4.02,4.02h-8.39c-2.58,0-4.02-1.43-4.02-4.02v-40.39c0-10.04-6.24-17.07-15.42-17.07s-18,9.33-18,20.59v36.87c0,2.58-1.43,4.02-4.02,4.02h-8.39c-2.58,0-4.02-1.43-4.02-4.02v-40.39c0-10.04-6.24-17.07-15.42-17.07s-18.01,8.46-18.01,20.59v36.87c0,2.58-1.43,4.02-4.02,4.02h-8.39c-2.58,0-4.02-1.43-4.02-4.02v-66.28c0-2.58,1.43-4.02,4.02-4.02h8.39c2.58,0,4.02,1.43,4.02,4.02v5.67c5.24-6.89,12.77-11.41,21.45-11.41,11.19,0,20.59,5.81,25.25,15.42,4.88-9.33,13.92-15.42,24.53-15.42,16.14,0,28.48,11.91,28.48,30.2ZM757.97,253.16c0-5.67-4.45-10.04-10.19-10.04s-10.11,4.38-10.11,10.04,4.38,9.97,10.11,9.97,10.19-4.38,10.19-9.97ZM755.96,277.4c0-2.58-1.43-4.02-4.02-4.02h-8.32c-2.58,0-4.02,1.43-4.02,4.02v66.21c0,2.58,1.43,4.02,4.02,4.02h8.32c2.58,0,4.02-1.43,4.02-4.02v-66.21Z"/>
</svg>